1.8Hz3min_grf.mot
version=1
nRows=20
nColumns 19
inDegrees=yes
endheader
time	1_ground_force_vx	1_ground_force_vy	1_ground_force_vz	1_ground_force_px	1_ground_force_py	1_ground_force_pz	1_ground_torque_x	1_ground_torque_y	1_ground_torque_z	2_ground_force_vx	2_ground_force_vy	2_ground_force_vz	2_ground_force_px	2_ground_force_py	2_ground_force_pz	2_ground_torque_x	2_ground_torque_y	2_ground_torque_z
            3.751500	          -46.440933	          758.045625	          -89.449261	           -0.236782	            0.006093	           -0.375128	           -0.112730	            1.840073	           -0.217128	          -10.291237	         1098.593382	          110.732401	           -0.240622	            0.005607	           -0.695513	           -0.021998	            2.348338	            0.236700
            3.752000	          -46.258310	          758.407432	          -89.723313	           -0.236856	            0.006093	           -0.375166	           -0.098155	            1.609264	           -0.190384	          -10.103920	         1098.594728	          110.544609	           -0.240655	            0.005607	           -0.695444	           -0.021520	            2.339818	            0.235441
            3.752500	          -45.983734	          757.327010	          -90.003761	           -0.236844	            0.006093	           -0.375242	           -0.088828	            1.462941	           -0.173862	          -10.103399	         1098.411576	          110.215463	           -0.240607	            0.005607	           -0.695524	           -0.021764	            2.366124	            0.237419
            3.753000	          -45.479154	          757.506814	          -89.866668	           -0.236846	            0.006093	           -0.375163	           -0.094450	            1.573164	           -0.186632	           -9.447480	         1098.413776	          110.262104	           -0.240716	            0.005607	           -0.695505	           -0.019226	            2.235371	            0.224393
            3.753500	          -45.249009	          756.784419	          -89.549349	           -0.236764	            0.006093	           -0.375171	           -0.102901	            1.721008	           -0.203645	           -9.023980	         1097.863987	          109.931464	           -0.240730	            0.005607	           -0.695451	           -0.017753	            2.159786	            0.216264
            3.754000	          -45.157522	          756.604534	          -89.642054	           -0.236654	            0.006094	           -0.375319	           -0.113980	            1.909708	           -0.226261	           -8.931837	         1098.234570	          109.416522	           -0.240708	            0.005607	           -0.695480	           -0.017513	            2.153348	            0.214537
            3.754500	          -44.835922	          755.882550	          -89.416666	           -0.236696	            0.006093	           -0.375119	           -0.110797	            1.867907	           -0.220963	           -8.603202	         1098.051507	          109.462662	           -0.240728	            0.005607	           -0.695491	           -0.016941	            2.162244	            0.215550
            3.755000	          -44.652418	          755.161523	          -89.420213	           -0.236501	            0.006094	           -0.375291	           -0.097109	            1.642303	           -0.194468	           -8.132210	         1097.317975	          109.084409	           -0.240711	            0.005606	           -0.695397	           -0.015585	            2.102925	            0.209052
            3.755500	          -44.056832	          755.342524	          -89.558491	           -0.236634	            0.006093	           -0.375209	           -0.089061	            1.526935	           -0.181044	           -7.803759	         1097.136174	          108.708187	           -0.240796	            0.005606	           -0.695356	           -0.014864	            2.089774	            0.207062
            3.756000	          -43.781753	          754.621711	          -89.608117	           -0.236861	            0.006094	           -0.375393	           -0.083227	            1.434499	           -0.170341	           -7.194108	         1096.954796	          108.566480	           -0.240862	            0.005606	           -0.695434	           -0.013424	            2.046841	            0.202577
            3.756500	          -43.185036	          754.800746	          -89.287828	           -0.236675	            0.006093	           -0.375258	           -0.091809	            1.604665	           -0.189821	           -6.583812	         1096.589261	          108.377194	           -0.240908	            0.005605	           -0.695301	           -0.011710	            1.950426	            0.192763
            3.757000	          -43.367949	          753.538488	          -89.201080	           -0.236629	            0.006094	           -0.375311	           -0.096544	            1.677497	           -0.198576	           -6.159046	         1095.671815	          107.904448	           -0.240896	            0.005606	           -0.695321	           -0.010825	            1.925794	            0.189657
            3.757500	          -42.451042	          753.898939	          -89.155942	           -0.236624	            0.006094	           -0.375335	           -0.103703	            1.841680	           -0.217797	           -6.111717	         1095.489410	          107.481426	           -0.240827	            0.005606	           -0.695264	           -0.010716	            1.920731	            0.188448
            3.758000	          -41.992299	          754.078734	          -89.018750	           -0.236771	            0.006093	           -0.375223	           -0.103017	            1.849924	           -0.218383	           -5.172163	         1094.757068	          107.243752	           -0.240893	            0.005605	           -0.695186	           -0.008618	            1.824189	            0.178700
            3.758500	          -41.670715	          752.816180	          -88.841534	           -0.236694	            0.006094	           -0.375298	           -0.090622	            1.637167	           -0.193206	           -5.119517	         1093.101294	          106.815472	           -0.240922	            0.005604	           -0.695028	           -0.008517	            1.818518	            0.177702
            3.759000	          -41.349783	          752.635946	          -88.843103	           -0.236772	            0.006093	           -0.375116	           -0.082713	            1.505525	           -0.177716	           -4.556900	         1092.921253	          106.251439	           -0.240934	            0.005604	           -0.694952	           -0.007273	            1.744364	            0.169583
            3.759500	          -40.753496	          752.094901	          -88.755182	           -0.236790	            0.006093	           -0.375221	           -0.081795	            1.509496	           -0.178137	           -3.849602	         1091.635581	          106.011893	           -0.240904	            0.005604	           -0.694907	           -0.005926	            1.680360	            0.163185
            3.760000	          -40.295305	          751.554691	          -88.896210	           -0.236619	            0.006093	           -0.375199	           -0.088075	            1.642694	           -0.194303	           -3.568708	         1091.638270	          105.542492	           -0.241036	            0.005604	           -0.694959	           -0.005304	            1.622536	            0.156871
            3.760500	          -39.743904	          751.372461	          -88.393929	           -0.236781	            0.006093	           -0.375238	           -0.098340	            1.859147	           -0.218716	           -3.050242	         1090.720917	          105.069706	           -0.240897	            0.005604	           -0.694875	           -0.004283	            1.531403	            0.147521
            3.761000	          -39.423541	          751.193210	          -88.624775	           -0.236650	            0.006094	           -0.375359	           -0.101668	            1.937218	           -0.228550	           -2.438596	         1089.987056	          104.926042	           -0.240987	            0.005603	           -0.694815	           -0.003367	            1.505097	            0.144886
